<svg width="176" height="176" viewBox="0 0 176 176" fill="none" xmlns="http://www.w3.org/2000/svg">
<g id="Frame 795">
<circle id="Ellipse 5" opacity="0.15" cx="88.1085" cy="87.661" r="81.5172" stroke="url(#paint0_linear_904_94)" stroke-opacity="0.25" stroke-width="12"/>
<g id="rocket">
<path id="rocket_2" d="M138.314 55.0405C138.507 57.6053 138.533 60.1495 138.412 62.5062C138.206 64.1749 138.106 66.3648 137.776 69.0347C136.789 77.0444 133.753 83.7851 129.003 89.2981C124.857 94.0386 119.27 98.0931 112.052 101.608L109.913 118.962C109.707 120.631 109.042 121.904 108.209 123.157C107.209 124.389 105.937 125.079 104.518 125.581L87.1177 131.907C85.6989 132.409 84.383 132.078 83.1494 131.079C81.8952 130.246 81.538 129.017 81.7232 127.515L83.6774 111.662C80.8399 112.668 78.5447 113.401 76.9589 113.883C76.4166 114.155 75.9154 114.093 75.2678 113.844C74.5995 113.762 74.3066 113.387 74.0136 113.012L64.6384 101.014C64.3454 100.639 64.0524 100.265 64.1347 99.597C64.0499 98.909 64.1117 98.4084 64.5075 97.9489C65.5485 96.3832 66.8183 94.3375 68.2962 91.9786L52.4257 90.0222C50.9222 89.8368 49.8145 89.1921 49.3108 87.7747C48.6401 86.3368 48.8046 85.0019 49.6374 83.7493L59.8598 68.2385C60.6926 66.9859 61.6514 66.0876 63.0907 65.4181C64.5094 64.9153 65.9076 64.5795 67.5782 64.7854L84.9523 66.9272C90.1186 60.788 95.434 56.1917 100.857 53.4721C107.365 50.2087 114.816 48.925 122.835 49.9135C125.675 50.2636 127.826 50.6982 129.329 50.8836C131.648 51.3387 134.112 51.9814 136.557 52.7909C137.518 53.2482 138.104 53.9981 138.314 55.0405ZM117.873 76.4065C120.044 76.6742 121.964 76.2333 123.841 74.7706C125.529 73.4541 126.591 71.7215 126.879 69.3854C127.146 67.2161 126.537 65.2775 125.24 63.4235C123.754 61.7157 122.019 60.6549 119.848 60.3871C117.509 60.0988 115.568 60.7066 113.88 62.0231C112.003 63.4858 111.109 65.239 110.841 67.4083C110.553 69.7445 110.995 71.6624 112.481 73.3701C113.779 75.2242 115.534 76.1182 117.873 76.4065Z" fill="#00C1EB"/>
<path id="Vector" d="M46.2869 107.398C42.3807 111.218 37.0179 128.477 36.4192 130.43C36.2257 131.058 36.4046 131.74 36.8755 132.204C37.226 132.547 37.6896 132.729 38.1678 132.729C38.3431 132.729 38.5183 132.704 38.6935 132.654C40.6904 132.068 58.3377 126.824 62.2439 123.004C66.6429 118.702 66.6429 111.7 62.2439 107.398C57.8412 103.096 50.6859 103.1 46.2869 107.398Z" fill="url(#paint1_linear_904_94)"/>
</g>
</g>
<defs>
<linearGradient id="paint0_linear_904_94" x1="149.313" y1="9.2091" x2="60.7741" y2="128.676" gradientUnits="userSpaceOnUse">
<stop stop-color="white"/>
<stop offset="1" stop-color="white" stop-opacity="0"/>
</linearGradient>
<linearGradient id="paint1_linear_904_94" x1="50.9427" y1="104.173" x2="50.9427" y2="132.729" gradientUnits="userSpaceOnUse">
<stop stop-color="#F15500"/>
<stop offset="1" stop-color="#F7BD9E"/>
</linearGradient>
</defs>
</svg>
